HIERARCHY
ROOT Hips
{
  OFFSET 52.9209 94.1461 12.313
  CHANNELS 6 Xposition Yposition Zposition Zrotation Xrotation Yrotation
  JOINT spine
  {
    OFFSET 0 7.4756 0.429885
    CHANNELS 3 Zrotation Xrotation Yrotation
    JOINT spine1
    {
      OFFSET 0 9.92301 0
      CHANNELS 3 Zrotation Xrotation Yrotation
      JOINT spine2
      {
        OFFSET 0 9.50804 0
        CHANNELS 3 Zrotation Xrotation Yrotation
        JOINT Neck
        {
          OFFSET 0 24.4111 1.16384
          CHANNELS 3 Zrotation Xrotation Yrotation
          JOINT Head
          {
            OFFSET 0 7.37523 0
            CHANNELS 3 Zrotation Xrotation Yrotation
            End Site
            {
              OFFSET 0 17.8522 -5.88741
            }
          }
        }
        JOINT RightShoulder
        {
          OFFSET -4.00356 10.2679 -0.557468
          CHANNELS 3 Zrotation Xrotation Yrotation
          JOINT RightArm
          {
            OFFSET 0 13.4673 0
            CHANNELS 3 Zrotation Xrotation Yrotation
            JOINT RightArmRoll
            {
              OFFSET 0 6.79858 0
              CHANNELS 3 Zrotation Xrotation Yrotation
              JOINT RightForeArm
              {
                OFFSET 0 19.8018 0
                CHANNELS 3 Zrotation Xrotation Yrotation
                JOINT RightForeArmRoll
                {
                  OFFSET 0 7.62905 0
                  CHANNELS 3 Zrotation Xrotation Yrotation
                  JOINT RightHand
                  {
                    OFFSET 0 15.3098 0
                    CHANNELS 3 Zrotation Xrotation Yrotation
                    End Site
                    {
                      OFFSET 0 0 0
                    }
                  }
                }
              }
            }
          }
        }
        JOINT LeftShoulder
        {
          OFFSET 4.00356 10.2679 -0.557468
          CHANNELS 3 Zrotation Xrotation Yrotation
          JOINT LeftArm
          {
            OFFSET 0 13.4673 0
            CHANNELS 3 Zrotation Xrotation Yrotation
            JOINT LeftArmRoll
            {
              OFFSET 0 6.79858 0
              CHANNELS 3 Zrotation Xrotation Yrotation
              JOINT LeftForeArm
              {
                OFFSET 0 19.8018 0
                CHANNELS 3 Zrotation Xrotation Yrotation
                JOINT LeftForeArmRoll
                {
                  OFFSET 0 7.62905 0
                  CHANNELS 3 Zrotation Xrotation Yrotation
                  JOINT LeftHand
                  {
                    OFFSET 0 15.3098 0
                    CHANNELS 3 Zrotation Xrotation Yrotation
                    End Site
                    {
                      OFFSET 0 0 0
                    }
                  }
                }
              }
            }
          }
        }
      }
    }
  }
  JOINT RightUpLeg
  {
    OFFSET -6.62609 -1.21505 -1.01927
    CHANNELS 3 Zrotation Xrotation Yrotation
    JOINT RightUpLegRoll
    {
      OFFSET 0 17.9517 0
      CHANNELS 3 Zrotation Xrotation Yrotation
      JOINT RightLeg
      {
        OFFSET 0 -22.2304 0
        CHANNELS 3 Zrotation Xrotation Yrotation
        JOINT RightLegRoll
        {
          OFFSET 0 22.3032 0
          CHANNELS 3 Zrotation Xrotation Yrotation
          JOINT RightFoot
          {
            OFFSET 0 18.5636 0
            CHANNELS 3 Zrotation Xrotation Yrotation
            JOINT RightToeBase
            {
              OFFSET 0 15.5183 0
              CHANNELS 3 Zrotation Xrotation Yrotation
              End Site
              {
                OFFSET 0.00657761 7.51539 -0.866262
              }
            }
          }
        }
      }
    }
  }
  JOINT LeftUpLeg
  {
    OFFSET 6.62609 -1.21505 -1.01927
    CHANNELS 3 Zrotation Xrotation Yrotation
    JOINT LeftUpLegRoll
    {
      OFFSET 0 17.9518 0
      CHANNELS 3 Zrotation Xrotation Yrotation
      JOINT LeftLeg
      {
        OFFSET 0 22.2303 0
        CHANNELS 3 Zrotation Xrotation Yrotation
        JOINT LeftLegRoll
        {
          OFFSET 0 22.5093 0
          CHANNELS 3 Zrotation Xrotation Yrotation
          JOINT LeftFoot
          {
            OFFSET 0 18.3575 0
            CHANNELS 3 Zrotation Xrotation Yrotation
            JOINT LeftToeBase
            {
              OFFSET 0 15.5183 0
              CHANNELS 3 Zrotation Xrotation Yrotation
              End Site
              {
                OFFSET -0.029478 7.51539 -0.866263
              }
            }
          }
        }
      }
    }
  }
}
MOTION
Frames: 12
Frame Time: 0.00208333
49.9307 93.0837 12.3146 -2.27497 -0.817242 4.15632 0.177896 -1.52144 0.230283 0.359457 0.967201 0.443289 0.354368 2.61225 0.437477 -0.689653 4.97874 -5.49639 2.67223 3.82465 -5.53176 78.1268 -1.49848 -2.81896 90.094 0.836095 17.6067 1.59397e-005 1.0747e-006 -2.38012e-006 10.6156 4.96849 -1.1688 1.28259e-005 -2.42631e-007 -3.00579 8.02893 -4.95148 0.697696 -75.3973 0.501352 1.70871 -99.2291 21.1803 -12.0812 -5.48347e-007 1.68081e-006 1.67241e-006 -7.56537 17.452 2.36553 -4.45667e-006 -2.24709e-006 2.99999 -8.02923 -4.95146 -0.697684 -178.323 3.72284 -2.24927 180 7.01535e-015 178.874 178.406 12.6402 179.626 -7.76093e-007 -3.05258e-006 0.301759 -21.5508 71.1445 22.5664 8.13649 25.2327 -3.48774 -173.403 10.6488 0.54029 4.54188e-006 -4.6773e-006 -1.16328 0.557041 -20.6859 0.788119 -1.83587e-006 7.66846e-007 -0.297611 18.4145 67.5477 -19.166 -8.16818 27.2798 0.788403 
49.9294 93.0682 12.3114 -2.3127 -0.839322 4.1443 0.178275 -1.5182 0.22953 0.360191 0.97321 0.441648 0.355123 2.61825 0.435825 -0.484671 5.01095 -5.50535 2.53881 3.81339 -5.50793 78.3372 -1.47034 -2.82708 89.824 0.874319 17.5741 1.59397e-005 1.0747e-006 -2.38012e-006 10.6583 5.02614 -1.17292 1.28259e-005 -2.42631e-007 -3.00579 8.02893 -4.95148 0.697696 -75.2114 0.481214 1.69669 -99.3838 21.3274 -11.9514 -5.48347e-007 1.68081e-006 1.67241e-006 -7.57002 17.5267 2.37412 -4.45667e-006 -2.24709e-006 2.99999 -8.02923 -4.95146 -0.697684 -178.311 3.70282 -2.2256 180 7.01536e-015 178.875 178.358 12.6314 179.633 -7.76093e-007 -3.05258e-006 0.298547 -21.5217 71.1193 22.5387 8.13649 25.2327 -3.48774 -173.356 10.6402 0.490949 4.54188e-006 -4.6773e-006 -1.16428 0.53472 -20.709 0.782702 -1.83587e-006 7.66846e-007 -0.299554 18.4248 67.5637 -19.1789 -8.16832 27.2758 0.793119 
49.9533 93.1529 12.3158 -2.35048 -0.861275 4.13274 0.178566 -1.51498 0.228883 0.36075 0.979163 0.440223 0.3557 2.62421 0.43439 -0.27774 5.04418 -5.5146 2.40415 3.80104 -5.48408 78.5495 -1.44205 -2.83526 89.5518 0.913276 17.5457 1.59397e-005 1.0747e-006 -2.38012e-006 10.6993 5.07741 -1.17624 1.28259e-005 -2.42631e-007 -3.00579 8.02893 -4.95148 0.697696 -75.0246 0.462309 1.68394 -99.5419 21.4735 -11.8212 -5.48347e-007 1.68081e-006 1.67241e-006 -7.57492 17.5965 2.38235 -4.45667e-006 -2.24709e-006 2.99999 -8.02923 -4.95146 -0.697684 -178.301 3.68181 -2.20026 180 7.01536e-015 178.876 178.308 12.6203 179.641 -7.76093e-007 -3.05258e-006 0.295187 -21.4923 71.0938 22.5106 8.13649 25.2327 -3.48774 -173.308 10.6323 0.44047 4.54188e-006 -4.6773e-006 -1.16532 0.511363 -20.7319 0.777068 -1.83587e-006 7.66846e-007 -0.30138 18.4336 67.5775 -19.1902 -8.16844 27.2723 0.797137 
49.954 93.1105 12.314 -2.38831 -0.88314 4.1215 0.178795 -1.51177 0.228308 0.361189 0.985075 0.438949 0.356154 2.63012 0.433109 -0.0694419 5.07812 -5.52404 2.26862 3.78793 -5.46021 78.763 -1.41366 -2.84349 89.278 0.952748 17.5202 1.59397e-005 1.0747e-006 -2.38012e-006 10.7389 5.12422 -1.17899 1.28259e-005 -2.42631e-007 -3.00579 8.02893 -4.95148 0.697696 -74.8372 0.444265 1.67067 -99.7023 21.6189 -11.6908 -5.48347e-007 1.68081e-006 1.67241e-006 -7.58 17.6627 2.39032 -4.45667e-006 -2.24709e-006 2.99999 -8.02923 -4.95146 -0.697684 -178.291 3.66012 -2.17376 180 7.01536e-015 178.877 178.257 12.6075 179.649 -7.76093e-007 -3.05258e-006 0.291724 -21.4626 71.0679 22.4824 8.13649 25.2327 -3.48774 -173.26 10.6247 0.389194 4.54188e-006 -4.6773e-006 -1.16638 0.487279 -20.7545 0.771282 -1.83587e-006 7.66846e-007 -0.303126 18.4413 67.5899 -19.2004 -8.16855 27.2692 0.800665 
49.9623 93.1318 12.3162 -2.42616 -0.904955 4.11045 0.178988 -1.50857 0.227776 0.361557 0.990965 0.43776 0.356538 2.63601 0.431914 0.139643 5.11248 -5.5336 2.13261 3.77437 -5.43634 78.9772 -1.38522 -2.85174 89.0034 0.992517 17.4964 1.59397e-005 1.0747e-006 -2.38012e-006 10.7779 5.16848 -1.18141 1.28259e-005 -2.42631e-007 -3.00579 8.02893 -4.95148 0.697696 -74.6494 0.426714 1.65711 -99.8645 21.7639 -11.5602 -5.48347e-007 1.68081e-006 1.67241e-006 -7.5852 17.7269 2.39814 -4.45667e-006 -2.24709e-006 2.99999 -8.02923 -4.95146 -0.697684 -178.282 3.63803 -2.1466 180 7.01536e-015 178.878 178.204 12.5939 179.657 -7.76093e-007 -3.05258e-006 0.288201 -21.4327 71.0419 22.454 8.13649 25.2327 -3.48774 -173.212 10.6174 0.337465 4.54188e-006 -4.6773e-006 -1.16745 0.462777 -20.7771 0.765408 -1.83587e-006 7.66846e-007 -0.304824 18.4484 67.6015 -19.2099 -8.16865 27.2662 0.803914 
49.968 93.1291 12.3154 -2.46403 -0.926758 4.09944 0.179173 -1.50537 0.227253 0.361909 0.996849 0.436593 0.356904 2.64189 0.430741 0.348934 5.14694 -5.54319 1.99648 3.76071 -5.41246 79.1916 -1.35676 -2.86 88.7285 1.03237 17.4731 1.59397e-005 1.0747e-006 -2.38012e-006 10.8167 5.2121 -1.18376 1.28259e-005 -2.42631e-007 -3.00579 8.02893 -4.95148 0.697696 -74.4615 0.409286 1.64348 -100.028 21.9089 -11.4294 -5.48347e-007 1.68081e-006 1.67241e-006 -7.59043 17.7906 2.40594 -4.45667e-006 -2.24709e-006 2.99999 -8.02923 -4.95146 -0.697684 -178.273 3.61584 -2.11927 180 7.01537e-015 178.879 178.152 12.5799 179.665 -7.76093e-007 -3.05258e-006 0.284663 -21.4029 71.0159 22.4257 8.13649 25.2327 -3.48774 -173.163 10.6102 0.285623 4.54188e-006 -4.6773e-006 -1.16852 0.438167 -20.7996 0.759511 -1.83587e-006 7.66846e-007 -0.306511 18.4553 67.6128 -19.2192 -8.16875 27.2633 0.807092 
49.9745 93.12 12.3146 -2.50189 -0.948586 4.08834 0.179376 -1.50217 0.22671 0.362295 1.00274 0.435383 0.357305 2.64779 0.429525 0.557848 5.18119 -5.55273 1.86062 3.74727 -5.38859 79.4057 -1.32833 -2.86824 88.4542 1.07209 17.4489 1.59397e-005 1.0747e-006 -2.38012e-006 10.8559 5.25699 -1.18626 1.28259e-005 -2.42631e-007 -3.00579 8.02893 -4.95148 0.697696 -74.2738 0.391611 1.62999 -100.191 22.054 -11.2984 -5.48347e-007 1.68081e-006 1.67241e-006 -7.59564 17.8553 2.41382 -4.45667e-006 -2.24709e-006 2.99999 -8.02923 -4.95146 -0.697684 -178.263 3.59385 -2.09228 180 7.01537e-015 178.88 178.099 12.5665 179.673 -7.76093e-007 -3.05258e-006 0.281155 -21.3733 70.99 22.3975 8.13649 25.2327 -3.48774 -173.115 10.6028 0.234013 4.54188e-006 -4.6773e-006 -1.16959 0.413758 -20.8221 0.753655 -1.83587e-006 7.66846e-007 -0.308221 18.4626 67.6246 -19.2289 -8.16885 27.2604 0.81041 
49.9793 93.1207 12.3145 -2.53974 -0.970479 4.07702 0.179623 -1.49896 0.226115 0.362769 1.00867 0.434066 0.357796 2.65371 0.428199 0.765804 5.21492 -5.56213 1.72539 3.73436 -5.36474 79.6188 -1.29998 -2.87646 88.181 1.11146 17.4226 1.59397e-005 1.0747e-006 -2.38012e-006 10.8959 5.30507 -1.18918 1.28259e-005 -2.42631e-007 -3.00579 8.02893 -4.95148 0.697696 -74.0865 0.37332 1.61687 -100.354 22.1997 -11.1673 -5.48347e-007 1.68081e-006 1.67241e-006 -7.60076 17.9225 2.4219 -4.45667e-006 -2.24709e-006 2.99999 -8.02923 -4.95146 -0.697684 -178.253 3.57234 -2.06612 180 7.01537e-015 178.881 178.048 12.5542 179.681 -7.76093e-007 -3.05258e-006 0.277721 -21.344 70.9642 22.3697 8.13649 25.2327 -3.48774 -173.067 10.5951 0.182976 4.54188e-006 -4.6773e-006 -1.17065 0.389861 -20.8448 0.747905 -1.83587e-006 7.66846e-007 -0.30999 18.4706 67.6374 -19.2395 -8.16896 27.2571 0.814078 
49.9833 93.1052 12.3183 -2.57756 -0.992474 4.06532 0.17994 -1.49573 0.225436 0.363383 1.01464 0.432576 0.358428 2.65968 0.426699 0.972219 5.24784 -5.5713 1.59116 3.72233 -5.3409 79.8306 -1.27174 -2.88462 87.9097 1.15027 17.3929 1.59397e-005 1.0747e-006 -2.38012e-006 10.9374 5.35826 -1.19275 1.28259e-005 -2.42631e-007 -3.00579 8.02893 -4.95148 0.697696 -73.9 0.354043 1.60434 -100.515 22.3461 -11.036 -5.48347e-007 1.68081e-006 1.67241e-006 -7.60571 17.9937 2.4303 -4.45667e-006 -2.24709e-006 2.99999 -8.02923 -4.95146 -0.697684 -178.242 3.55163 -2.04129 180 7.01537e-015 178.882 177.999 12.5438 179.689 -7.76093e-007 -3.05258e-006 0.274405 -21.3151 70.9387 22.3422 8.13649 25.2327 -3.48774 -173.02 10.5869 0.132854 4.54188e-006 -4.6773e-006 -1.17167 0.366784 -20.8678 0.742327 -1.83587e-006 7.66846e-007 -0.311851 18.4799 67.6519 -19.2514 -8.16909 27.2535 0.818303 
49.9877 93.1056 12.3163 -2.61535 -1.01461 4.05312 0.180355 -1.49248 0.224642 0.364189 1.02067 0.43085 0.359256 2.66571 0.424959 1.17651 5.27963 -5.58017 1.45832 3.71149 -5.31709 80.0404 -1.24366 -2.89271 87.6409 1.18831 17.3587 1.59397e-005 1.0747e-006 -2.38012e-006 10.981 5.41846 -1.19721 1.28259e-005 -2.42631e-007 -3.00579 8.02893 -4.95148 0.697696 -73.7146 0.333411 1.59262 -100.674 22.4937 -10.9046 -5.48347e-007 1.68081e-006 1.67241e-006 -7.61044 18.0705 2.43913 -4.45667e-006 -2.24709e-006 2.99999 -8.02923 -4.95146 -0.697684 -178.231 3.53199 -2.01829 180 7.01537e-015 178.883 177.952 12.5359 179.696 -7.76093e-007 -3.05258e-006 0.271252 -21.2869 70.9137 22.3153 8.13649 25.2327 -3.48774 -172.973 10.5781 0.0839913 4.54188e-006 -4.6773e-006 -1.17266 0.344838 -20.891 0.736983 -1.83587e-006 7.66846e-007 -0.313841 18.491 67.6686 -19.2651 -8.16923 27.2492 0.823296 
49.9863 93.0934 12.3232 -2.65308 -1.03692 4.04028 0.180894 -1.4892 0.223702 0.36524 1.02678 0.428822 0.360332 2.67182 0.422914 1.37809 5.30997 -5.58865 1.32723 3.70217 -5.29331 80.2477 -1.21578 -2.90072 87.3754 1.22536 17.3185 1.59397e-005 1.0747e-006 -2.38012e-006 11.027 5.48759 -1.20282 1.28259e-005 -2.42631e-007 -3.00579 8.02893 -4.95148 0.697696 -73.5304 0.311054 1.58193 -100.831 22.6428 -10.7732 -5.48347e-007 1.68081e-006 1.67241e-006 -7.61489 18.1543 2.44852 -4.45667e-006 -2.24709e-006 2.99999 -8.02923 -4.95146 -0.697684 -178.217 3.51374 -1.99762 180 7.01538e-015 178.883 177.907 12.5313 179.703 -7.76093e-007 -3.05258e-006 0.268307 -21.2595 70.8892 22.289 8.13649 25.2327 -3.48774 -172.926 10.5684 0.0367293 4.54188e-006 -4.6773e-006 -1.1736 0.324333 -20.9147 0.73194 -1.83587e-006 7.66846e-007 -0.315994 18.5043 67.6883 -19.2811 -8.16939 27.2443 0.829267 
49.9955 93.1022 12.3227 -2.69074 -1.05946 4.02666 0.181582 -1.48589 0.222584 0.366587 1.03299 0.426429 0.36171 2.67803 0.420498 1.57639 5.33858 -5.59666 1.19827 3.69471 -5.26956 80.4519 -1.18815 -2.90861 87.1138 1.26122 17.2712 1.59397e-005 1.0747e-006 -2.38012e-006 11.0761 5.56756 -1.20981 1.28259e-005 -2.42631e-007 -3.00579 8.02893 -4.95148 0.697696 -73.3478 0.286601 1.57249 -100.984 22.7935 -10.6417 -5.48347e-007 1.68081e-006 1.67241e-006 -7.61899 18.2466 2.45857 -4.45667e-006 -2.24709e-006 2.99999 -8.02923 -4.95146 -0.697684 -178.202 3.49715 -1.97977 180 7.01538e-015 178.884 177.867 12.5306 179.709 -7.76093e-007 -3.05258e-006 0.265612 -21.233 70.8654 22.2634 8.13649 25.2327 -3.48774 -172.88 10.5576 -0.00858883 4.54188e-006 -4.6773e-006 -1.17449 0.305578 -20.9389 0.727261 -1.83587e-006 7.66846e-007 -0.318345 18.5202 67.7115 -19.3 -8.16959 27.2385 0.836424 
